<?xml version="1.0" encoding="utf-8"?>
<svg version="1.1" xmlns:xlink="http://www.w3.org/1999/xlink" width="23px" height="23px" xmlns="http://www.w3.org/2000/svg">
  <g transform="matrix(1 0 0 1 -1697 -858 )">
    <path d="M 15.1985677083333 19.0319010416667  C 15.2884114583333 18.9420572916667  15.3333333333333 18.8272569444444  15.3333333333333 18.6875  L 15.3333333333333 16.2916666666667  C 15.3333333333333 16.1519097222222  15.2884114583333 16.037109375  15.1985677083333 15.947265625  C 15.1087239583333 15.857421875  14.9939236111111 15.8125  14.8541666666667 15.8125  L 13.4166666666667 15.8125  L 13.4166666666667 8.14583333333333  C 13.4166666666667 8.00607638888889  13.3717447916667 7.89127604166667  13.2819010416667 7.80143229166667  C 13.1920572916667 7.71158854166667  13.0772569444444 7.66666666666667  12.9375 7.66666666666667  L 8.14583333333333 7.66666666666667  C 8.00607638888889 7.66666666666667  7.89127604166667 7.71158854166667  7.80143229166667 7.80143229166667  C 7.71158854166667 7.89127604166667  7.66666666666667 8.00607638888889  7.66666666666667 8.14583333333333  L 7.66666666666667 10.5416666666667  C 7.66666666666667 10.6814236111111  7.71158854166667 10.7962239583333  7.80143229166667 10.8860677083333  C 7.89127604166667 10.9759114583333  8.00607638888889 11.0208333333333  8.14583333333333 11.0208333333333  L 9.58333333333333 11.0208333333333  L 9.58333333333333 15.8125  L 8.14583333333333 15.8125  C 8.00607638888889 15.8125  7.89127604166667 15.857421875  7.80143229166667 15.947265625  C 7.71158854166667 16.037109375  7.66666666666667 16.1519097222222  7.66666666666667 16.2916666666667  L 7.66666666666667 18.6875  C 7.66666666666667 18.8272569444444  7.71158854166667 18.9420572916667  7.80143229166667 19.0319010416667  C 7.89127604166667 19.1217447916667  8.00607638888889 19.1666666666667  8.14583333333333 19.1666666666667  L 14.8541666666667 19.1666666666667  C 14.9939236111111 19.1666666666667  15.1087239583333 19.1217447916667  15.1985677083333 19.0319010416667  Z M 13.2819010416667 5.615234375  C 13.3717447916667 5.525390625  13.4166666666667 5.41059027777778  13.4166666666667 5.27083333333333  L 13.4166666666667 2.875  C 13.4166666666667 2.73524305555555  13.3717447916667 2.62044270833333  13.2819010416667 2.53059895833333  C 13.1920572916667 2.44075520833333  13.0772569444444 2.39583333333333  12.9375 2.39583333333333  L 10.0625 2.39583333333333  C 9.92274305555556 2.39583333333333  9.80794270833333 2.44075520833333  9.71809895833333 2.53059895833333  C 9.62825520833333 2.62044270833333  9.58333333333333 2.73524305555555  9.58333333333333 2.875  L 9.58333333333333 5.27083333333333  C 9.58333333333333 5.41059027777778  9.62825520833333 5.525390625  9.71809895833333 5.615234375  C 9.80794270833333 5.705078125  9.92274305555556 5.75  10.0625 5.75  L 12.9375 5.75  C 13.0772569444444 5.75  13.1920572916667 5.705078125  13.2819010416667 5.615234375  Z M 21.4576822916667 5.7275390625  C 22.4858940972222 7.48947482638889  23 9.41362847222222  23 11.5  C 23 13.5863715277778  22.4858940972222 15.5105251736111  21.4576822916667 17.2724609375  C 20.4294704861111 19.0343967013889  19.0343967013889 20.4294704861111  17.2724609375 21.4576822916667  C 15.5105251736111 22.4858940972222  13.5863715277778 23  11.5 23  C 9.41362847222222 23  7.48947482638889 22.4858940972222  5.7275390625 21.4576822916667  C 3.96560329861111 20.4294704861111  2.57052951388889 19.0343967013889  1.54231770833333 17.2724609375  C 0.514105902777778 15.5105251736111  0 13.5863715277778  0 11.5  C 0 9.41362847222222  0.514105902777778 7.48947482638889  1.54231770833333 5.7275390625  C 2.57052951388889 3.96560329861111  3.96560329861111 2.57052951388889  5.7275390625 1.54231770833333  C 7.48947482638889 0.514105902777776  9.41362847222222 0  11.5 0  C 13.5863715277778 0  15.5105251736111 0.514105902777776  17.2724609375 1.54231770833333  C 19.0343967013889 2.57052951388889  20.4294704861111 3.96560329861111  21.4576822916667 5.7275390625  Z " fill-rule="nonzero" fill="#aaaaaa" stroke="none" transform="matrix(1 0 0 1 1697 858 )" />
  </g>
</svg>