<?xml version="1.0" encoding="utf-8"?>
<svg version="1.1" xmlns:xlink="http://www.w3.org/1999/xlink" width="28px" height="15px" xmlns="http://www.w3.org/2000/svg">
  <g transform="matrix(1 0 0 1 -68 -80 )">
    <path d="M 18.528125 8.08061079545455  C 18.6204861111111 8.01313920454545  18.6666666666667 7.93323863636363  18.6666666666667 7.84090909090909  C 18.6666666666667 7.74147727272727  18.6229166666667 7.65980113636364  18.5354166666667 7.59588068181818  L 13.4020833333333 3.84588068181818  C 13.3145833333333 3.78196022727273  13.2027777777778 3.75  13.0666666666667 3.75  C 12.9305555555556 3.75  12.81875 3.78196022727273  12.73125 3.84588068181818  L 7.6125 7.58522727272727  C 7.51527777777778 7.67045454545455  7.46666666666667 7.75568181818182  7.46666666666667 7.84090909090909  C 7.46666666666667 7.94034090909091  7.51041666666667 8.02201704545455  7.59791666666667 8.0859375  C 7.68541666666667 8.14985795454546  7.79722222222222 8.18181818181818  7.93333333333333 8.18181818181818  L 11.2 8.18181818181818  L 11.2 11.9318181818182  C 11.2 12.0241477272727  11.2461805555556 12.1040482954545  11.3385416666667 12.1715198863636  C 11.4309027777778 12.2389914772727  11.5402777777778 12.2727272727273  11.6666666666667 12.2727272727273  L 14.4666666666667 12.2727272727273  C 14.5930555555556 12.2727272727273  14.7024305555556 12.2389914772727  14.7947916666667 12.1715198863636  C 14.8871527777778 12.1040482954545  14.9333333333333 12.0241477272727  14.9333333333333 11.9318181818182  L 14.9333333333333 8.18181818181818  L 18.2 8.18181818181818  C 18.3263888888889 8.18181818181818  18.4357638888889 8.14808238636364  18.528125 8.08061079545455  Z M 26.7822916666667 8.36825284090909  C 27.5940972222222 9.11044034090909  28 9.95738636363636  28 10.9090909090909  C 28 12.0383522727273  27.453125 13.0024857954545  26.359375 13.8014914772727  C 25.265625 14.6004971590909  23.9458333333333 15  22.4 15  L 6.53333333333333 15  C 4.73472222222222 15  3.19618055555556 14.5330255681818  1.91770833333333 13.5990767045455  C 0.639236111111111 12.6651278409091  0 11.5411931818182  0 10.2272727272727  C 0 9.30397727272727  0.340277777777778 8.45170454545455  1.02083333333333 7.67045454545455  C 1.70138888888889 6.88920454545454  2.61527777777778 6.30326704545454  3.7625 5.91264204545455  C 3.74305555555556 5.69957386363636  3.73333333333333 5.546875  3.73333333333333 5.45454545454546  C 3.73333333333333 3.94886363636364  4.4625 2.66335227272727  5.92083333333333 1.59801136363636  C 7.37916666666667 0.532670454545455  9.13888888888889 0  11.2 0  C 12.7166666666667 0  14.1045138888889 0.308948863636364  15.3635416666667 0.926846590909091  C 16.6225694444444 1.54474431818182  17.5388888888889 2.36505681818182  18.1125 3.38778409090909  C 18.8027777777778 2.94744318181818  19.6097222222222 2.72727272727273  20.5333333333333 2.72727272727273  C 21.5638888888889 2.72727272727273  22.44375 2.99360795454545  23.1729166666667 3.52627840909091  C 23.9020833333333 4.05894886363636  24.2666666666667 4.70170454545454  24.2666666666667 5.45454545454546  C 24.2666666666667 5.99431818181818  24.0673611111111 6.484375  23.66875 6.92471590909091  C 24.9326388888889 7.14488636363636  25.9704861111111 7.62606534090909  26.7822916666667 8.36825284090909  Z " fill-rule="nonzero" fill="#aaaaaa" stroke="none" transform="matrix(1 0 0 1 68 80 )" />
  </g>
</svg>