<?xml version="1.0" encoding="utf-8"?>
<svg version="1.1" xmlns:xlink="http://www.w3.org/1999/xlink" width="23px" height="23px" xmlns="http://www.w3.org/2000/svg">
  <g transform="matrix(1 0 0 1 -1694 -124 )">
    <path d="M 15.9230769230769 7.69891826923077  L 7.69891826923077 15.9230769230769  L 15.9230769230769 15.9230769230769  L 15.9230769230769 7.69891826923077  Z M 7.07692307692308 7.07692307692308  L 7.07692307692308 15.3010817307692  L 15.3010817307692 7.07692307692308  L 7.07692307692308 7.07692307692308  Z M 22.8756009615385 16.0474759615385  C 22.9585336538462 16.1304086538462  23 16.2363782051282  23 16.3653846153846  L 23 19.0192307692308  C 23 19.1482371794872  22.9585336538462 19.2542067307692  22.8756009615385 19.3371394230769  C 22.7926682692308 19.4200721153846  22.6866987179487 19.4615384615385  22.5576923076923 19.4615384615385  L 19.4615384615385 19.4615384615385  L 19.4615384615385 22.5576923076923  C 19.4615384615385 22.6866987179487  19.4200721153846 22.7926682692308  19.3371394230769 22.8756009615385  C 19.2542067307692 22.9585336538462  19.1482371794872 23  19.0192307692308 23  L 16.3653846153846 23  C 16.2363782051282 23  16.1304086538462 22.9585336538462  16.0474759615385 22.8756009615385  C 15.9645432692308 22.7926682692308  15.9230769230769 22.6866987179487  15.9230769230769 22.5576923076923  L 15.9230769230769 19.4615384615385  L 3.98076923076923 19.4615384615385  C 3.85176282051282 19.4615384615385  3.74579326923077 19.4200721153846  3.66286057692308 19.3371394230769  C 3.57992788461538 19.2542067307692  3.53846153846154 19.1482371794872  3.53846153846154 19.0192307692308  L 3.53846153846154 7.07692307692308  L 0.442307692307692 7.07692307692308  C 0.313301282051282 7.07692307692308  0.207331730769231 7.03545673076923  0.124399038461538 6.95252403846154  C 0.0414663461538462 6.86959134615384  0 6.76362179487179  0 6.63461538461538  L 0 3.98076923076923  C 0 3.85176282051282  0.0414663461538462 3.74579326923077  0.124399038461538 3.66286057692308  C 0.207331730769231 3.57992788461538  0.313301282051282 3.53846153846154  0.442307692307692 3.53846153846154  L 3.53846153846154 3.53846153846154  L 3.53846153846154 0.442307692307693  C 3.53846153846154 0.313301282051281  3.57992788461538 0.207331730769232  3.66286057692308 0.124399038461539  C 3.74579326923077 0.0414663461538454  3.85176282051282 0  3.98076923076923 0  L 6.63461538461538 0  C 6.76362179487179 0  6.86959134615385 0.0414663461538454  6.95252403846154 0.124399038461539  C 7.03545673076923 0.207331730769232  7.07692307692308 0.313301282051281  7.07692307692308 0.442307692307693  L 7.07692307692308 3.53846153846154  L 18.8395432692308 3.53846153846154  L 22.2397836538462 0.124399038461539  C 22.3319310897436 0.0414663461538454  22.4379006410256 0  22.5576923076923 0  C 22.677483974359 0  22.783453525641 0.0414663461538454  22.8756009615385 0.124399038461539  C 22.9585336538462 0.216546474358972  23 0.322516025641026  23 0.442307692307693  C 23 0.562099358974356  22.9585336538462 0.66806891025641  22.8756009615385 0.760216346153845  L 19.4615384615385 4.16045673076923  L 19.4615384615385 15.9230769230769  L 22.5576923076923 15.9230769230769  C 22.6866987179487 15.9230769230769  22.7926682692308 15.9645432692308  22.8756009615385 16.0474759615385  Z " fill-rule="nonzero" fill="#aaaaaa" stroke="none" transform="matrix(1 0 0 1 1694 124 )" />
  </g>
</svg>