<?xml version="1.0" encoding="utf-8"?>
<svg version="1.1" xmlns:xlink="http://www.w3.org/1999/xlink" width="25px" height="23px" xmlns="http://www.w3.org/2000/svg">
  <g transform="matrix(1 0 0 1 -1697 -263 )">
    <path d="M 0 18.8181818181818  L 5.72916666666667 18.8181818181818  L 5.72916666666667 20.9090909090909  L 0 20.9090909090909  L 0 18.8181818181818  Z M 7.29166666666667 16.7272727272727  L 11.4583333333333 16.7272727272727  C 11.7404513888889 16.7272727272727  11.9845920138889 16.8307291666667  12.1907552083333 17.0376420454545  C 12.3969184027778 17.2445549242424  12.5 17.4895833333333  12.5 17.7727272727273  L 12.5 21.9545454545455  C 12.5 22.2376893939394  12.3969184027778 22.4827178030303  12.1907552083333 22.6896306818182  C 11.9845920138889 22.8965435606061  11.7404513888889 23  11.4583333333333 23  L 7.29166666666667 23  C 7.00954861111111 23  6.76540798611111 22.8965435606061  6.55924479166667 22.6896306818182  C 6.35308159722222 22.4827178030303  6.25 22.2376893939394  6.25 21.9545454545455  L 6.25 17.7727272727273  C 6.25 17.4895833333333  6.35308159722222 17.2445549242424  6.55924479166667 17.0376420454545  C 6.76540798611111 16.8307291666667  7.00954861111111 16.7272727272727  7.29166666666667 16.7272727272727  Z M 0 10.4545454545455  L 14.0625 10.4545454545455  L 14.0625 12.5454545454545  L 0 12.5454545454545  L 0 10.4545454545455  Z M 0 2.09090909090909  L 3.64583333333333 2.09090909090909  L 3.64583333333333 4.18181818181818  L 0 4.18181818181818  L 0 2.09090909090909  Z M 13.0208333333333 18.8181818181818  L 25 18.8181818181818  L 25 21  L 13.0208333333333 21  L 13.0208333333333 18.8181818181818  Z M 5.20833333333333 0  L 9.375 0  C 9.65711805555556 0  9.90125868055556 0.103456439393937  10.107421875 0.310369318181819  C 10.3135850694444 0.517282196969694  10.4166666666667 0.762310606060605  10.4166666666667 1.04545454545454  L 10.4166666666667 5.22727272727273  C 10.4166666666667 5.51041666666667  10.3135850694444 5.75544507575757  10.107421875 5.96235795454546  C 9.90125868055556 6.16927083333333  9.65711805555556 6.27272727272727  9.375 6.27272727272727  L 5.20833333333333 6.27272727272727  C 4.92621527777778 6.27272727272727  4.68207465277778 6.16927083333333  4.47591145833333 5.96235795454546  C 4.26974826388889 5.75544507575757  4.16666666666667 5.51041666666667  4.16666666666667 5.22727272727273  L 4.16666666666667 1.04545454545454  C 4.16666666666667 0.762310606060605  4.26974826388889 0.517282196969694  4.47591145833333 0.310369318181819  C 4.68207465277778 0.103456439393937  4.92621527777778 0  5.20833333333333 0  Z M 15.625 8.36363636363636  L 19.7916666666667 8.36363636363636  C 20.0737847222222 8.36363636363636  20.3179253472222 8.4670928030303  20.5240885416667 8.67400568181818  C 20.7302517361111 8.88091856060606  20.8333333333333 9.12594696969697  20.8333333333333 9.40909090909091  L 20.8333333333333 13.5909090909091  C 20.8333333333333 13.874053030303  20.7302517361111 14.1190814393939  20.5240885416667 14.3259943181818  C 20.3179253472222 14.5329071969697  20.0737847222222 14.6363636363636  19.7916666666667 14.6363636363636  L 15.625 14.6363636363636  C 15.3428819444444 14.6363636363636  15.0987413194444 14.5329071969697  14.892578125 14.3259943181818  C 14.6864149305556 14.1190814393939  14.5833333333333 13.874053030303  14.5833333333333 13.5909090909091  L 14.5833333333333 9.40909090909091  C 14.5833333333333 9.12594696969697  14.6864149305556 8.88091856060606  14.892578125 8.67400568181818  C 15.0987413194444 8.4670928030303  15.3428819444444 8.36363636363636  15.625 8.36363636363636  Z M 21.3541666666667 10.4545454545455  L 25 10.4545454545455  L 25 12.5454545454545  L 21.3541666666667 12.5454545454545  L 21.3541666666667 10.4545454545455  Z M 10.9375 2  L 25 2  L 25 4.18181818181818  L 10.9375 4.18181818181818  L 10.9375 2  Z " fill-rule="nonzero" fill="#aaaaaa" stroke="none" transform="matrix(1 0 0 1 1697 263 )" />
  </g>
</svg>