<?xml version="1.0" encoding="utf-8"?>
<svg version="1.1" xmlns:xlink="http://www.w3.org/1999/xlink" width="23px" height="23px" xmlns="http://www.w3.org/2000/svg">
  <g transform="matrix(1 0 0 1 -1697 -194 )">
    <path d="M 22.0865885416667 7.03776041666667  C 22.6955295138889 8.45529513888889  23 9.94270833333333  23 11.5  C 23 13.0572916666667  22.6955295138889 14.5447048611111  22.0865885416667 15.9622395833333  C 21.4776475694444 17.3797743055556  20.6590711805556 18.6026475694444  19.630859375 19.630859375  C 18.6026475694444 20.6590711805556  17.3797743055556 21.4776475694444  15.9622395833333 22.0865885416667  C 14.5447048611111 22.6955295138889  13.0572916666667 23  11.5 23  C 9.78298611111111 23  8.15082465277778 22.6381293402778  6.603515625 21.9143880208333  C 5.05620659722222 21.1906467013889  3.73849826388889 20.169921875  2.650390625 18.8522135416667  C 2.58051215277778 18.7523871527778  2.54806857638889 18.6400824652778  2.55305989583333 18.5152994791667  C 2.55805121527778 18.3905164930556  2.60047743055556 18.2881944444444  2.68033854166667 18.2083333333333  L 4.73177083333333 16.1419270833333  C 4.83159722222222 16.0520833333333  4.95638020833333 16.0071614583333  5.10611979166667 16.0071614583333  C 5.26584201388889 16.0271267361111  5.38064236111111 16.0870225694444  5.45052083333333 16.1868489583333  C 6.17925347222222 17.1351996527778  7.07269965277778 17.8689236111111  8.130859375 18.3880208333333  C 9.18901909722222 18.9071180555556  10.3120659722222 19.1666666666667  11.5 19.1666666666667  C 12.5381944444444 19.1666666666667  13.5289713541667 18.9645182291667  14.4723307291667 18.5602213541667  C 15.4156901041667 18.1559244791667  16.2317708333333 17.609375  16.9205729166667 16.9205729166667  C 17.609375 16.2317708333333  18.1559244791667 15.4156901041667  18.5602213541667 14.4723307291667  C 18.9645182291667 13.5289713541667  19.1666666666667 12.5381944444444  19.1666666666667 11.5  C 19.1666666666667 10.4618055555556  18.9645182291667 9.47102864583333  18.5602213541667 8.52766927083333  C 18.1559244791667 7.58430989583333  17.609375 6.76822916666667  16.9205729166667 6.07942708333333  C 16.2317708333333 5.390625  15.4156901041667 4.84407552083333  14.4723307291667 4.43977864583333  C 13.5289713541667 4.03548177083333  12.5381944444444 3.83333333333333  11.5 3.83333333333333  C 10.5217013888889 3.83333333333333  9.58333333333333 4.01052517361111  8.68489583333333 4.36490885416667  C 7.78645833333333 4.71929253472222  6.98784722222222 5.22591145833333  6.2890625 5.884765625  L 8.34049479166667 7.951171875  C 8.64995659722222 8.25065104166667  8.71983506944444 8.59505208333333  8.55013020833333 8.984375  C 8.38042534722222 9.38368055555556  8.0859375 9.58333333333333  7.66666666666667 9.58333333333333  L 0.958333333333333 9.58333333333333  C 0.698784722222222 9.58333333333333  0.474175347222222 9.48849826388889  0.284505208333333 9.298828125  C 0.0948350694444444 9.10915798611111  0 8.88454861111111  0 8.625  L 0 1.91666666666667  C 0 1.49739583333333  0.199652777777778 1.20290798611111  0.598958333333333 1.033203125  C 0.98828125 0.863498263888887  1.33268229166667 0.933376736111111  1.63216145833333 1.24283854166667  L 3.57877604166667 3.17447916666667  C 4.64691840277778 2.16623263888889  5.86729600694444 1.38509114583333  7.23990885416667 0.8310546875  C 8.61252170138889 0.277018229166668  10.0325520833333 0  11.5 0  C 13.0572916666667 0  14.5447048611111 0.304470486111111  15.9622395833333 0.913411458333332  C 17.3797743055556 1.52235243055555  18.6026475694444 2.34092881944444  19.630859375 3.369140625  C 20.6590711805556 4.39735243055555  21.4776475694444 5.62022569444444  22.0865885416667 7.03776041666667  Z " fill-rule="nonzero" fill="#aaaaaa" stroke="none" transform="matrix(1 0 0 1 1697 194 )" />
  </g>
</svg>