<?xml version="1.0" encoding="utf-8"?>
<svg version="1.1" xmlns:xlink="http://www.w3.org/1999/xlink" width="23px" height="23px" xmlns="http://www.w3.org/2000/svg">
  <g transform="matrix(1 0 0 1 -1695 -328 )">
    <path d="M 19.0810055865922 0.693080357142858  C 19.5864059590317 0.231026785714287  20.1432029795158 0  20.7513966480447 0  C 21.3510242085661 0  21.8756983240223 0.198939732142858  22.3254189944134 0.596819196428571  C 22.7751396648045 0.994698660714287  23 1.49311755952381  23 2.09207589285714  C 23 2.63113839285714  22.8072625698324 3.27715773809524  22.4217877094972 4.03013392857143  C 19.5778398510242 9.41220238095238  17.5862197392924 12.6294642857143  16.4469273743017 13.6819196428571  C 15.6160148975791 14.4605654761905  14.6823091247672 14.8498883928571  13.6458100558659 14.8498883928571  C 12.5664804469274 14.8498883928571  11.639199255121 14.4541480654762  10.8639664804469 13.6626674107143  C 10.0887337057728 12.8711867559524  9.70111731843575 11.9321056547619  9.70111731843575 10.8454241071429  C 9.70111731843575 9.75018601190476  10.0951582867784 8.84319196428571  10.8832402234637 8.12444196428571  L 19.0810055865922 0.693080357142858  Z M 7.46536312849162 13.4059709821429  C 7.91080074487896 13.341796875  8.44618249534451 13.296875  9.07150837988827 13.2712053571429  C 9.40558659217877 13.9215029761905  9.86173184357542 14.4776785714286  10.4399441340782 14.9397321428571  C 11.018156424581 15.4017857142857  11.6627560521415 15.7269345238095  12.3737430167598 15.9151785714286  L 12.386592178771 16.8264508928571  C 12.4208566108007 18.6489955357143  11.8662011173184 20.133556547619  10.722625698324 21.2801339285714  C 9.57905027932961 22.4267113095238  8.08640595903166 23  6.24469273743017 23  C 5.19106145251397 23  4.25735567970205 22.8010602678571  3.44357541899441 22.4031808035714  C 2.62979515828678 22.0053013392857  1.97662942271881 21.4598214285714  1.4840782122905 20.7667410714286  C 0.991527001862197 20.0736607142857  0.621042830540037 19.2907366071429  0.372625698324022 18.41796875  C 0.124208566108007 17.5452008928571  0 16.6039806547619  0 15.5943080357143  C 0.0599627560521416 15.6370907738095  0.235567970204842 15.7654389880952  0.526815642458101 15.9793526785714  C 0.81806331471136 16.1932663690476  1.08361266294227 16.3836495535714  1.32346368715084 16.5505022321429  C 1.5633147113594 16.7173549107143  1.81601489757914 16.8735119047619  2.08156424581006 17.0189732142857  C 2.34711359404097 17.1644345238095  2.54413407821229 17.2371651785714  2.67262569832402 17.2371651785714  C 3.02383612662942 17.2371651785714  3.25940409683427 17.078869047619  3.37932960893855 16.7622767857143  C 3.59348230912477 16.1975446428571  3.83975791433892 15.7162388392857  4.11815642458101 15.318359375  C 4.39655493482309 14.9204799107143  4.69422718808194 14.5953311011905  5.01117318435754 14.3429129464286  C 5.32811918063315 14.0904947916667  5.70502793296089 13.8872767857143  6.14189944134078 13.7332589285714  C 6.57877094972067 13.5792410714286  7.01992551210428 13.4701450892857  7.46536312849162 13.4059709821429  Z " fill-rule="nonzero" fill="#aaaaaa" stroke="none" transform="matrix(1 0 0 1 1695 328 )" />
  </g>
</svg>