<?xml version="1.0" encoding="utf-8"?>
<svg version="1.1" xmlns:xlink="http://www.w3.org/1999/xlink" width="25px" height="19px" xmlns="http://www.w3.org/2000/svg">
  <g transform="matrix(1 0 0 1 -68 -157 )">
    <path d="M 7.60416666666667 3.859375  C 8.09027777777778 4.32118055555555  8.33333333333333 4.88194444444444  8.33333333333333 5.54166666666667  C 8.33333333333333 6.20138888888889  8.09027777777778 6.76215277777778  7.60416666666667 7.22395833333333  C 7.11805555555556 7.68576388888889  6.52777777777778 7.91666666666667  5.83333333333333 7.91666666666667  C 5.13888888888889 7.91666666666667  4.54861111111111 7.68576388888889  4.0625 7.22395833333333  C 3.57638888888889 6.76215277777778  3.33333333333333 6.20138888888889  3.33333333333333 5.54166666666667  C 3.33333333333333 4.88194444444444  3.57638888888889 4.32118055555555  4.0625 3.859375  C 4.54861111111111 3.39756944444444  5.13888888888889 3.16666666666667  5.83333333333333 3.16666666666667  C 6.52777777777778 3.16666666666667  7.11805555555556 3.39756944444444  7.60416666666667 3.859375  Z M 16.25 5.14583333333333  L 21.6666666666667 10.2916666666667  L 21.6666666666667 15.8333333333333  L 3.33333333333333 15.8333333333333  L 3.33333333333333 13.4583333333333  L 7.5 9.5  L 9.58333333333333 11.4791666666667  L 16.25 5.14583333333333  Z M 23.2096354166667 1.70084635416667  C 23.1271701388889 1.62250434027778  23.0295138888889 1.58333333333333  22.9166666666667 1.58333333333333  L 2.08333333333333 1.58333333333333  C 1.97048611111111 1.58333333333333  1.87282986111111 1.62250434027778  1.79036458333333 1.70084635416667  C 1.70789930555556 1.77918836805555  1.66666666666667 1.87196180555555  2 1.97916666666667  L 2 17.0208333333333  C 1.66666666666667 17.1280381944444  1.70789930555556 17.2208116319444  1.79036458333333 17.2991536458333  C 1.87282986111111 17.3774956597222  1.97048611111111 17.4166666666667  2.08333333333333 17.4166666666667  L 22.9166666666667 17.4166666666667  C 23.0295138888889 17.4166666666667  23.1271701388889 17.3774956597222  23.2096354166667 17.2991536458333  C 23.2921006944444 17.2208116319444  23.3333333333333 17.1280381944444  23 17.0208333333333  L 23 1.97916666666667  C 23.3333333333333 1.87196180555555  23.2921006944444 1.77918836805555  23.2096354166667 1.70084635416667  Z M 24.3880208333333 0.581380208333334  C 24.7960069444444 0.968967013888888  25 1.43489583333333  25 1.97916666666667  L 25 17.0208333333333  C 25 17.5651041666667  24.7960069444444 18.0310329861111  24.3880208333333 18.4186197916667  C 23.9800347222222 18.8062065972222  23.4895833333333 19  22.9166666666667 19  L 2.08333333333333 19  C 1.51041666666667 19  1.01996527777778 18.8062065972222  0.611979166666667 18.4186197916667  C 0.203993055555556 18.0310329861111  0 17.5651041666667  0 17.0208333333333  L 0 1.97916666666667  C 0 1.43489583333333  0.203993055555556 0.968967013888888  0.611979166666667 0.581380208333334  C 1.01996527777778 0.193793402777776  1.51041666666667 0  2.08333333333333 0  L 22.9166666666667 0  C 23.4895833333333 0  23.9800347222222 0.193793402777776  24.3880208333333 0.581380208333334  Z " fill-rule="nonzero" fill="#aaaaaa" stroke="none" transform="matrix(1 0 0 1 68 157 )" />
  </g>
</svg>