<?xml version="1.0" encoding="utf-8"?>
<svg version="1.1" xmlns:xlink="http://www.w3.org/1999/xlink" width="95px" height="95px" xmlns="http://www.w3.org/2000/svg">
  <g transform="matrix(1 0 0 1 -824 -288 )">
    <path d="M 29.0513392857143 3.76395089285714  C 34.9181547619048 1.25465029761905  41.0677083333333 0  47.5 0  C 53.9322916666667 0  60.0818452380952 1.25465029761905  65.9486607142857 3.76395089285714  C 71.8154761904762 6.27325148809524  76.8694196428571 9.6484375  81.1104910714286 13.8895089285714  C 85.3515625 18.1305803571429  88.7267485119048 23.1845238095238  91.2360491071429 29.0513392857143  C 93.745349702381 34.9181547619048  95 41.0677083333333  95 47.5  C 95 53.8969494047619  93.7541852678571 60.0288318452381  91.2625558035714 65.8956473214286  C 88.7709263392857 71.7624627976191  85.4045758928571 76.81640625  81.1635044642857 81.0574776785714  C 76.9224330357143 85.2985491071429  71.8684895833333 88.6825706845238  66.0016741071429 91.2095424107143  C 60.1348586309524 93.7365141369048  53.9676339285714 95  47.5 95  C 41.0323660714286 95  34.8651413690476 93.7453497023809  28.9983258928571 91.2360491071429  C 23.1315104166667 88.7267485119048  18.0864025297619 85.3427269345238  13.8630022321429 81.083984375  C 9.63960193452381 76.8252418154762  6.27325148809524 71.7712983630952  3.76395089285714 65.9221540178571  C 1.25465029761905 60.073009672619  0 53.9322916666667  0 47.5  C 0 41.0677083333333  1.25465029761905 34.9181547619048  3.76395089285714 29.0513392857143  C 6.27325148809524 23.1845238095238  9.6484375 18.1305803571429  13.8895089285714 13.8895089285714  C 18.1305803571429 9.6484375  23.1845238095238 6.27325148809524  29.0513392857143 3.76395089285714  Z M 64.0931919642857 54.2857142857143  C 72.5753348214286 54.2857142857143  77.9827008928571 60.0641741071429  80.3152901785714 71.62109375  C 85.581287202381 64.3759300595238  88.2142857142857 56.3355654761905  88.2142857142857 47.5  C 88.2142857142857 41.9866071428571  87.1363467261905 36.7206101190476  84.98046875 31.7020089285714  C 82.8245907738095 26.6834077380952  79.9265252976191 22.3539806547619  76.2862723214286 18.7137276785714  C 72.6460193452381 15.073474702381  68.3165922619048 12.1754092261905  63.2979910714286 10.01953125  C 58.2793898809524 7.86365327380952  53.0133928571429 6.78571428571428  47.5 6.78571428571428  C 41.9866071428571 6.78571428571428  36.7206101190476 7.86365327380952  31.7020089285714 10.01953125  C 26.6834077380952 12.1754092261905  22.3539806547619 15.073474702381  18.7137276785714 18.7137276785714  C 15.073474702381 22.3539806547619  12.1754092261905 26.6834077380952  10.01953125 31.7020089285714  C 7.86365327380952 36.7206101190476  6.78571428571429 41.9866071428571  6.78571428571429 47.5  C 6.78571428571429 56.3355654761905  9.41871279761905 64.3759300595238  14.6847098214286 71.62109375  C 17.0172991071429 60.0641741071429  22.4246651785714 54.2857142857143  30.9068080357143 54.2857142857143  C 35.5366443452381 58.8095238095238  41.0677083333333 61.0714285714286  47.5 61.0714285714286  C 53.9322916666667 61.0714285714286  59.4633556547619 58.8095238095238  64.0931919642857 54.2857142857143  Z M 61.8931361607143 51.7145647321429  C 65.869140625 47.7385602678571  67.8571428571429 42.9408482142857  67.8571428571429 37.3214285714286  C 67.8571428571429 31.7020089285714  65.869140625 26.904296875  61.8931361607143 22.9282924107143  C 57.9171316964286 18.9522879464286  53.1194196428571 16.9642857142857  47.5 16.9642857142857  C 41.8805803571429 16.9642857142857  37.0828683035714 18.9522879464286  33.1068638392857 22.9282924107143  C 29.130859375 26.904296875  27.1428571428571 31.7020089285714  27.1428571428571 37.3214285714286  C 27.1428571428571 42.9408482142857  29.130859375 47.7385602678571  33.1068638392857 51.7145647321429  C 37.0828683035714 55.6905691964286  41.8805803571429 57.6785714285714  47.5 57.6785714285714  C 53.1194196428571 57.6785714285714  57.9171316964286 55.6905691964286  61.8931361607143 51.7145647321429  Z " fill-rule="nonzero" fill="#e5e0e0" stroke="none" transform="matrix(1 0 0 1 824 288 )" />
  </g>
</svg>