<?xml version="1.0" encoding="utf-8"?>
<svg version="1.1" xmlns:xlink="http://www.w3.org/1999/xlink" width="15px" height="12px" xmlns="http://www.w3.org/2000/svg">
  <g transform="matrix(1 0 0 1 -1631 -22 )">
    <path d="M 13.2296954314721 1.89375  C 13.8197969543147 1.83125  14.4098984771574 1.675  15 1.425  C 14.5748730964467 2.0375  14.0609137055838 2.559375  13.4581218274112 2.990625  C 13.4644670050761 3.078125  13.4676395939086 3.209375  13.4676395939086 3.384375  C 13.4676395939086 4.196875  13.3470812182741 5.0078125  13.1059644670051 5.8171875  C 12.864847715736 6.6265625  12.4984137055838 7.403125  12.0066624365482 8.146875  C 11.5149111675127 8.890625  10.9295685279188 9.5484375  10.2506345177665 10.1203125  C 9.57170050761421 10.6921875  8.75317258883249 11.1484375  7.79505076142132 11.4890625  C 6.83692893401015 11.8296875  5.81218274111675 12  4.72081218274112 12  C 3.001269035533 12  1.42766497461929 11.546875  0 10.640625  C 0.222081218274112 10.665625  0.469543147208122 10.678125  0.74238578680203 10.678125  C 2.17005076142132 10.678125  3.44225888324873 10.246875  4.55901015228426 9.384375  C 3.89276649746193 9.371875  3.29631979695431 9.1703125  2.76967005076142 8.7796875  C 2.24302030456853 8.3890625  1.88134517766497 7.890625  1.68464467005076 7.284375  C 1.89403553299492 7.315625  2.08756345177665 7.33125  2.26522842639594 7.33125  C 2.53807106598985 7.33125  2.80774111675127 7.296875  3.0742385786802 7.228125  C 2.36357868020305 7.084375  1.77506345177665 6.7359375  1.30869289340102 6.1828125  C 0.842322335025381 5.6296875  0.609137055837564 4.9875  0.609137055837563 4.25625  L 0.609137055837563 4.21875  C 1.04060913705584 4.45625  1.50380710659898 4.584375  1.99873096446701 4.603125  C 1.57994923857868 4.328125  1.24682741116751 3.96875  0.999365482233503 3.525  C 0.751903553299492 3.08125  0.628172588832487 2.6  0.628172588832487 2.08125  C 0.628172588832487 1.53125  0.767766497461929 1.021875  1.04695431472081 0.553125000000001  C 1.81472081218274 1.484375  2.74904822335025 2.2296875  3.84993654822335 2.7890625  C 4.95082487309645 3.3484375  6.12944162436548 3.659375  7.38578680203046 3.721875  C 7.33502538071066 3.484375  7.30964467005076 3.253125  7.30964467005076 3.028125  C 7.30964467005076 2.190625  7.60945431472081 1.4765625  8.20907360406091 0.8859375  C 8.80869289340101 0.295312500000001  9.53362944162437 0  10.383883248731 0  C 11.2722081218274 0  12.0209390862944 0.318750000000001  12.630076142132 0.95625  C 13.3217005076142 0.825  13.9720812182741 0.58125  14.5812182741117 0.225000000000001  C 14.3464467005076 0.943749999999998  13.8959390862944 1.5  13.2296954314721 1.89375  Z " fill-rule="nonzero" fill="#e5e0e0" stroke="none" transform="matrix(1 0 0 1 1631 22 )" />
  </g>
</svg>